<svg xmlns="http://www.w3.org/2000/svg" width="1400" height="900" viewBox="0 0 1400 900" fill="none">
  <defs>
    <linearGradient id="appBg" x1="0" y1="0" x2="1400" y2="900" gradientUnits="userSpaceOnUse">
      <stop stop-color="#15151A"/>
      <stop offset="1" stop-color="#0D0D10"/>
    </linearGradient>
    <linearGradient id="chart" x1="435" y1="520" x2="1120" y2="520" gradientUnits="userSpaceOnUse">
      <stop stop-color="#8B5CF6"/>
      <stop offset="0.52" stop-color="#D946EF"/>
      <stop offset="1" stop-color="#22D3EE"/>
    </linearGradient>
    <linearGradient id="fill" x1="700" y1="370" x2="700" y2="690" gradientUnits="userSpaceOnUse">
      <stop stop-color="#8B5CF6" stop-opacity="0.28"/>
      <stop offset="1" stop-color="#8B5CF6" stop-opacity="0"/>
    </linearGradient>
    <filter id="glow" x="350" y="290" width="850" height="440" filterUnits="userSpaceOnUse">
      <feGaussianBlur stdDeviation="14"/>
    </filter>
  </defs>
  <rect width="1400" height="900" fill="url(#appBg)"/>
  <rect width="1400" height="58" fill="#101014"/>
  <path d="M0 58H1400" stroke="#2A2A31"/>
  <circle cx="27" cy="29" r="6" fill="#FF6259"/>
  <circle cx="48" cy="29" r="6" fill="#FFBF3F"/>
  <circle cx="69" cy="29" r="6" fill="#35C84A"/>
  <rect x="547" y="17" width="306" height="25" rx="7" fill="#1B1B21"/>
  <circle cx="567" cy="29.5" r="4" stroke="#656570" stroke-width="2"/>
  <path d="M570 32.5L575 37" stroke="#656570" stroke-width="2" stroke-linecap="round"/>
  <text x="594" y="34" fill="#71717A" font-family="Arial, sans-serif" font-size="13">orbit.local/dashboard</text>

  <rect y="59" width="250" height="841" fill="#111115"/>
  <path d="M250 59V900" stroke="#29292F"/>
  <rect x="24" y="92" width="36" height="36" rx="10" fill="#7656F6"/>
  <circle cx="42" cy="110" r="8" fill="#D8CCFF"/>
  <text x="72" y="116" fill="#F4F4F5" font-family="Arial, sans-serif" font-weight="700" font-size="19">Orbit</text>
  <text x="25" y="172" fill="#52525B" font-family="Arial, sans-serif" font-weight="700" font-size="11" letter-spacing="1.5">WORKSPACE</text>
  <rect x="14" y="192" width="221" height="43" rx="9" fill="#212127"/>
  <rect x="14" y="192" width="3" height="43" rx="1.5" fill="#8B5CF6"/>
  <circle cx="37" cy="213.5" r="7" stroke="#A78BFA" stroke-width="2"/>
  <path d="M37 207V214L42 217" stroke="#A78BFA" stroke-width="2" stroke-linecap="round"/>
  <text x="59" y="218" fill="#E4E4E7" font-family="Arial, sans-serif" font-size="14">Overview</text>
  <g fill="#71717A" font-family="Arial, sans-serif" font-size="14">
    <text x="59" y="269">Analytics</text>
    <text x="59" y="317">Transactions</text>
    <text x="59" y="365">Customers</text>
    <text x="59" y="413">Reports</text>
  </g>
  <g stroke="#64646E" stroke-width="1.8" stroke-linecap="round">
    <path d="M29 262h16M31 256v12M37 253v18M43 258v10"/>
    <path d="M29 307h16v12H29zM33 303h8"/>
    <path d="M31 359c0-4 3-7 7-7s7 3 7 7-3 7-7 7-7-3-7-7zM27 376c2-5 6-7 11-7s9 2 11 7"/>
    <path d="M30 400h14M30 407h14M30 414h9"/>
  </g>
  <rect x="22" y="810" width="205" height="62" rx="12" fill="#18181D" stroke="#29292F"/>
  <circle cx="53" cy="841" r="17" fill="#302A45"/>
  <text x="47" y="847" fill="#C4B5FD" font-family="Arial, sans-serif" font-weight="700" font-size="16">L</text>
  <text x="80" y="838" fill="#D4D4D8" font-family="Arial, sans-serif" font-size="13">Luna Hey</text>
  <text x="80" y="856" fill="#52525B" font-family="Arial, sans-serif" font-size="11">Administrator</text>

  <text x="300" y="121" fill="#FAFAFA" font-family="Arial, sans-serif" font-weight="700" font-size="26">Good morning, Luna</text>
  <text x="300" y="151" fill="#71717A" font-family="Arial, sans-serif" font-size="14">Here’s what’s happening with your workspace today.</text>
  <rect x="1133" y="100" width="219" height="43" rx="10" fill="#7957EF"/>
  <path d="M1161 114v15M1153.5 121.5h15" stroke="white" stroke-width="2" stroke-linecap="round"/>
  <text x="1180" y="127" fill="white" font-family="Arial, sans-serif" font-weight="700" font-size="13">Create new report</text>

  <g>
    <rect x="300" y="190" width="244" height="150" rx="14" fill="#17171C" stroke="#2B2B32"/>
    <circle cx="332" cy="224" r="14" fill="#28203E"/>
    <path d="M327 226l4-4 3 3 5-6" stroke="#A78BFA" stroke-width="2" stroke-linecap="round" stroke-linejoin="round"/>
    <text x="356" y="229" fill="#8A8A94" font-family="Arial, sans-serif" font-size="13">Total revenue</text>
    <text x="324" y="286" fill="#FAFAFA" font-family="Arial, sans-serif" font-weight="700" font-size="32">£84,240</text>
    <rect x="324" y="303" width="57" height="22" rx="11" fill="#12372A"/>
    <text x="338" y="318" fill="#4ADE80" font-family="Arial, sans-serif" font-weight="700" font-size="11">+12.4%</text>
  </g>
  <g>
    <rect x="560" y="190" width="244" height="150" rx="14" fill="#17171C" stroke="#2B2B32"/>
    <circle cx="592" cy="224" r="14" fill="#1D3037"/>
    <path d="M586 224h12M592 218v12" stroke="#67E8F9" stroke-width="2" stroke-linecap="round"/>
    <text x="616" y="229" fill="#8A8A94" font-family="Arial, sans-serif" font-size="13">New customers</text>
    <text x="584" y="286" fill="#FAFAFA" font-family="Arial, sans-serif" font-weight="700" font-size="32">2,840</text>
    <rect x="584" y="303" width="55" height="22" rx="11" fill="#12372A"/>
    <text x="597" y="318" fill="#4ADE80" font-family="Arial, sans-serif" font-weight="700" font-size="11">+8.1%</text>
  </g>
  <g>
    <rect x="820" y="190" width="244" height="150" rx="14" fill="#17171C" stroke="#2B2B32"/>
    <circle cx="852" cy="224" r="14" fill="#34231D"/>
    <path d="M846 225l4 4 8-10" stroke="#FDBA74" stroke-width="2" stroke-linecap="round" stroke-linejoin="round"/>
    <text x="876" y="229" fill="#8A8A94" font-family="Arial, sans-serif" font-size="13">Conversion</text>
    <text x="844" y="286" fill="#FAFAFA" font-family="Arial, sans-serif" font-weight="700" font-size="32">18.6%</text>
    <rect x="844" y="303" width="52" height="22" rx="11" fill="#3B1D24"/>
    <text x="858" y="318" fill="#FB7185" font-family="Arial, sans-serif" font-weight="700" font-size="11">−1.2%</text>
  </g>
  <g>
    <rect x="1080" y="190" width="272" height="150" rx="14" fill="#17171C" stroke="#2B2B32"/>
    <circle cx="1112" cy="224" r="14" fill="#2C263B"/>
    <path d="M1106 224h12M1112 218v12" stroke="#C4B5FD" stroke-width="2" stroke-linecap="round"/>
    <text x="1136" y="229" fill="#8A8A94" font-family="Arial, sans-serif" font-size="13">Active projects</text>
    <text x="1104" y="286" fill="#FAFAFA" font-family="Arial, sans-serif" font-weight="700" font-size="32">24</text>
    <text x="1104" y="317" fill="#71717A" font-family="Arial, sans-serif" font-size="11">6 due this week</text>
  </g>

  <rect x="300" y="366" width="766" height="474" rx="14" fill="#17171C" stroke="#2B2B32"/>
  <text x="326" y="408" fill="#F4F4F5" font-family="Arial, sans-serif" font-weight="700" font-size="16">Revenue overview</text>
  <text x="326" y="432" fill="#62626C" font-family="Arial, sans-serif" font-size="12">Monthly performance</text>
  <rect x="892" y="391" width="148" height="35" rx="8" fill="#202026"/>
  <text x="912" y="413" fill="#A1A1AA" font-family="Arial, sans-serif" font-size="12">Last 12 months</text>
  <path d="M1023 405l5 5 5-5" stroke="#71717A" stroke-width="1.5" stroke-linecap="round"/>
  <g stroke="#29292F">
    <path d="M326 497H1040M326 563H1040M326 629H1040M326 695H1040M326 761H1040"/>
  </g>
  <path d="M326 706C371 690 398 621 440 644C479 665 502 580 548 596C592 611 620 539 663 553C704 566 732 474 778 502C823 530 848 432 895 464C942 495 975 407 1040 424V761H326V706Z" fill="url(#fill)"/>
  <path d="M326 706C371 690 398 621 440 644C479 665 502 580 548 596C592 611 620 539 663 553C704 566 732 474 778 502C823 530 848 432 895 464C942 495 975 407 1040 424" stroke="url(#chart)" stroke-opacity="0.32" stroke-width="18" filter="url(#glow)"/>
  <path d="M326 706C371 690 398 621 440 644C479 665 502 580 548 596C592 611 620 539 663 553C704 566 732 474 778 502C823 530 848 432 895 464C942 495 975 407 1040 424" stroke="url(#chart)" stroke-width="4" stroke-linecap="round"/>
  <g fill="#5E5E68" font-family="Arial, sans-serif" font-size="10">
    <text x="326" y="794">AUG</text><text x="435" y="794">OCT</text><text x="545" y="794">DEC</text><text x="655" y="794">FEB</text><text x="765" y="794">APR</text><text x="875" y="794">JUN</text><text x="1014" y="794">JUL</text>
  </g>

  <rect x="1082" y="366" width="270" height="474" rx="14" fill="#17171C" stroke="#2B2B32"/>
  <text x="1108" y="408" fill="#F4F4F5" font-family="Arial, sans-serif" font-weight="700" font-size="16">Recent activity</text>
  <text x="1108" y="432" fill="#62626C" font-family="Arial, sans-serif" font-size="12">Latest workspace events</text>
  <g font-family="Arial, sans-serif">
    <circle cx="1126" cy="483" r="18" fill="#312A48"/><text x="1120" y="489" fill="#C4B5FD" font-weight="700" font-size="15">M</text><text x="1155" y="480" fill="#D4D4D8" font-size="12">Maya added a report</text><text x="1155" y="500" fill="#5E5E68" font-size="10">12 minutes ago</text>
    <path d="M1108 530H1326" stroke="#29292F"/>
    <circle cx="1126" cy="570" r="18" fill="#1D3331"/><text x="1121" y="576" fill="#5EEAD4" font-weight="700" font-size="15">A</text><text x="1155" y="567" fill="#D4D4D8" font-size="12">Alex invited 3 people</text><text x="1155" y="587" fill="#5E5E68" font-size="10">1 hour ago</text>
    <path d="M1108 617H1326" stroke="#29292F"/>
    <circle cx="1126" cy="657" r="18" fill="#3A2A25"/><text x="1121" y="663" fill="#FDBA74" font-weight="700" font-size="15">J</text><text x="1155" y="654" fill="#D4D4D8" font-size="12">Jordan exported analytics</text><text x="1155" y="674" fill="#5E5E68" font-size="10">3 hours ago</text>
    <path d="M1108 704H1326" stroke="#29292F"/>
    <circle cx="1126" cy="744" r="18" fill="#2E263E"/><text x="1121" y="750" fill="#D8B4FE" font-weight="700" font-size="15">S</text><text x="1155" y="741" fill="#D4D4D8" font-size="12">Sam updated a project</text><text x="1155" y="761" fill="#5E5E68" font-size="10">Yesterday</text>
  </g>
</svg>
