<svg xmlns="http://www.w3.org/2000/svg" width="1024" height="1024" viewBox="0 0 1024 1024">
  <defs>
    <linearGradient id="surface" x1="120" y1="96" x2="920" y2="936" gradientUnits="userSpaceOnUse">
      <stop stop-color="#c084fc"/>
      <stop offset="0.45" stop-color="#8b5cf6"/>
      <stop offset="1" stop-color="#22d3ee"/>
    </linearGradient>
    <radialGradient id="light" cx="0" cy="0" r="1" gradientTransform="translate(282 232) rotate(45) scale(620)">
      <stop stop-color="#f0abfc" stop-opacity=".9"/>
      <stop offset="1" stop-color="#f0abfc" stop-opacity="0"/>
    </radialGradient>
    <filter id="shadow" x="-20%" y="-20%" width="140%" height="150%">
      <feDropShadow dx="0" dy="34" stdDeviation="38" flood-color="#000" flood-opacity=".38"/>
    </filter>
  </defs>
  <rect x="72" y="72" width="880" height="880" rx="208" fill="#111116" filter="url(#shadow)"/>
  <rect x="90" y="90" width="844" height="844" rx="192" fill="url(#surface)"/>
  <rect x="90" y="90" width="844" height="844" rx="192" fill="url(#light)"/>
  <path d="M689 340c-38-44-94-66-168-66-108 0-184 54-184 142 0 82 55 121 174 148 65 15 87 29 87 57 0 32-32 51-84 51-68 0-125-27-170-79l-82 89c59 66 143 100 247 100 121 0 199-58 199-153 0-87-55-128-180-156-62-14-82-27-82-51 0-27 27-44 73-44 51 0 95 20 133 60l67-98Z" fill="white"/>
  <rect x="90" y="90" width="844" height="844" rx="192" fill="none" stroke="white" stroke-opacity=".18" stroke-width="8"/>
</svg>
